<?xml version="1.0" encoding="UTF-8" standalone="no"?>
<!DOCTYPE svg PUBLIC "-//W3C//DTD SVG 1.1//EN" "http://www.w3.org/Graphics/SVG/1.1/DTD/svg11.dtd">
<svg width="100%" height="100%" viewBox="0 0 500 500" version="1.1" xmlns="http://www.w3.org/2000/svg" xmlns:xlink="http://www.w3.org/1999/xlink" xml:space="preserve" xmlns:serif="http://www.serif.com/" style="fill-rule:evenodd;clip-rule:evenodd;">
    <g transform="matrix(1.22002,0,0,1.22002,-10.8313,-73.8292)">
        <g transform="matrix(1.69582,0,0,1.02693,-121.728,193.978)">
            <path d="M97.666,139.235C99.988,139.235 101.794,138.702 103.084,137.637C105.111,135.963 106.124,132.951 106.124,128.599C106.124,124.217 105.046,121.265 102.89,119.744C101.674,118.892 99.868,118.466 97.473,118.466L87.66,118.466L87.66,139.235L97.666,139.235ZM99.518,170.182C102.89,170.182 105.295,168.57 106.732,165.344C107.635,163.305 108.087,160.84 108.087,157.949C108.087,153.08 106.769,149.764 104.134,147.999C102.734,147.055 100.882,146.584 98.578,146.584L87.66,146.584L87.66,170.182L99.518,170.182ZM82.27,110.889L99.711,110.889C104.466,110.889 107.847,113.232 109.856,117.918C111.035,120.687 111.625,123.882 111.625,127.504C111.625,131.733 110.897,135.203 109.441,137.911C108.686,139.341 107.598,140.65 106.18,141.836C108.262,143.145 109.819,144.621 110.851,146.264C112.675,149.185 113.587,153.217 113.587,158.36C113.587,162.681 112.767,166.592 111.127,170.091C108.676,175.325 104.779,177.942 99.435,177.942L82.27,177.942L82.27,110.889Z" style="fill:rgb(89,201,165);fill-rule:nonzero;"/>
            <path d="M119.503,129.284L124.561,129.284L124.561,177.942L119.503,177.942L119.503,129.284ZM119.503,110.889L124.561,110.889L124.561,120.2L119.503,120.2L119.503,110.889Z" style="fill:rgb(89,201,165);fill-rule:nonzero;"/>
            <path d="M133.075,115.407L138.105,115.407L138.105,129.056L142.832,129.056L142.832,135.765L138.105,135.765L138.105,167.672C138.105,169.376 138.456,170.517 139.156,171.095C139.543,171.43 140.188,171.597 141.091,171.597C141.33,171.597 141.588,171.59 141.865,171.575C142.141,171.559 142.464,171.521 142.832,171.461L142.832,177.942C142.261,178.216 141.667,178.414 141.049,178.536C140.432,178.657 139.764,178.718 139.045,178.718C136.723,178.718 135.148,177.737 134.319,175.774C133.489,173.811 133.075,171.263 133.075,168.128L133.075,135.765L129.067,135.765L129.067,129.056L133.075,129.056L133.075,115.407Z" style="fill:rgb(89,201,165);fill-rule:nonzero;"/>
            <path d="M152.064,156.306C152.193,160.11 152.737,163.199 153.695,165.572C155.519,170.015 158.735,172.237 163.342,172.237C165.406,172.237 167.285,171.75 168.981,170.776C172.261,168.889 173.901,165.511 173.901,160.642C173.901,156.991 173.21,154.389 171.828,152.837C170.427,151.316 168.235,149.992 165.249,148.866L159.749,146.812C156.155,145.473 153.612,143.997 152.12,142.384C149.54,139.585 148.25,135.4 148.25,129.832C148.25,123.806 149.512,118.861 152.037,114.997C154.561,111.132 158.136,109.2 162.762,109.2C167.018,109.2 170.635,110.896 173.611,114.289C176.587,117.682 178.075,123.106 178.075,130.562L172.906,130.562C172.63,126.971 172.04,124.217 171.137,122.3C169.46,118.8 166.613,117.051 162.596,117.051C159.352,117.051 157.021,118.177 155.602,120.428C154.183,122.68 153.474,125.297 153.474,128.28C153.474,131.566 154.303,133.97 155.962,135.492C157.049,136.465 159.509,137.683 163.342,139.143L169.036,141.289C171.782,142.323 173.901,143.738 175.394,145.534C177.974,148.668 179.263,153.217 179.263,159.182C179.263,166.607 177.628,171.917 174.357,175.112C171.086,178.307 167.285,179.905 162.955,179.905C157.906,179.905 153.953,177.775 151.097,173.515C148.241,169.285 146.84,163.549 146.895,156.306L152.064,156.306Z" style="fill:rgb(89,201,165);fill-rule:nonzero;"/>
        </g>
        <g transform="matrix(1.58874,0,0,1.02693,84.9901,223.571)">
            <path d="M117.181,150.671L112.106,150.671L112.106,122.906C112.106,118.482 111.934,115.241 111.592,113.184C111.25,111.128 110.504,109.398 109.356,107.996C108.208,106.594 106.698,105.893 104.824,105.893C102.951,105.893 101.189,106.827 99.537,108.697C97.885,110.567 96.737,113.106 96.093,116.316C95.448,119.525 95.126,124.278 95.126,130.572L95.126,150.671L90.232,150.671L90.232,124.589C90.232,119.479 90.06,115.802 89.718,113.558C89.376,111.315 88.62,109.476 87.452,108.043C86.284,106.609 84.813,105.893 83.041,105.893C81.269,105.893 79.587,106.75 77.995,108.463C76.404,110.177 75.226,112.421 74.461,115.194C73.695,117.967 73.313,122.564 73.313,128.983L73.313,150.671L68.358,150.671L68.358,99.723L73.313,99.723L73.313,106.921C76.132,101.25 79.657,98.414 83.887,98.414C86.183,98.414 88.268,99.364 90.141,101.265C92.014,103.166 93.354,105.861 94.159,109.351C95.529,105.799 97.241,103.088 99.295,101.218C101.35,99.349 103.525,98.414 105.821,98.414C108.963,98.414 111.642,100.128 113.858,103.556C116.074,106.983 117.181,113.434 117.181,122.906L117.181,150.671Z" style="fill:rgb(70,87,117);fill-rule:nonzero;"/>
            <path d="M157.848,150.671L152.953,150.671L152.953,143.192C149.368,149.3 145.239,152.353 140.566,152.353C135.893,152.353 131.895,149.689 128.571,144.361C125.248,139.032 123.586,132.675 123.586,125.29C123.586,117.905 125.258,111.579 128.602,106.313C131.945,101.047 136.024,98.414 140.838,98.414C145.652,98.414 149.69,101.437 152.953,107.482L152.953,99.723L157.848,99.723L157.848,150.671ZM140.928,145.155C144.272,145.155 147.152,143.286 149.569,139.546C151.986,135.807 153.195,131.149 153.195,125.571C153.195,119.993 152.006,115.319 149.63,111.548C147.253,107.778 144.342,105.893 140.898,105.893C137.454,105.893 134.544,107.84 132.167,111.735C129.79,115.63 128.602,120.227 128.602,125.524C128.602,130.821 129.81,135.418 132.227,139.313C134.644,143.208 137.545,145.155 140.928,145.155Z" style="fill:rgb(70,87,117);fill-rule:nonzero;"/>
            <path d="M180.205,100.471L177.607,107.014C176.922,106.453 176.257,106.173 175.613,106.173C174.364,106.173 173.236,107.123 172.229,109.024C171.222,110.925 170.466,113.418 169.963,116.503C169.459,119.588 169.208,125.15 169.208,133.19L169.208,150.671L164.132,150.671L164.132,99.723L169.208,99.723L169.208,105.238C170.215,102.932 171.232,101.218 172.259,100.097C173.286,98.975 174.454,98.414 175.764,98.414C177.073,98.414 178.553,99.1 180.205,100.471Z" style="fill:rgb(70,87,117);fill-rule:nonzero;"/>
            <path d="M199.662,106.453L193.136,106.453L193.136,142.164C193.136,143.473 193.257,144.267 193.499,144.548C193.74,144.828 194.344,144.968 195.311,144.968L198.212,144.968L198.212,151.606C196.278,152.104 194.808,152.353 193.801,152.353C191.867,152.353 190.437,151.621 189.51,150.157C188.584,148.692 188.121,146.371 188.121,143.192L188.121,106.453L182.441,106.453L182.441,99.723L188.121,99.723L188.121,80.559L193.136,80.559L193.136,99.723L199.662,99.723L199.662,106.453Z" style="fill:rgb(70,87,117);fill-rule:nonzero;"/>
        </g>
    </g>
    <g transform="matrix(1.58506,0.738134,-0.788038,1.48468,229.536,-24.1175)">
        <path d="M120,83.574L120,116.426C120,118.398 118.462,120 116.568,120L83.432,120C81.538,120 80,118.398 80,116.426L80,83.574C80,81.602 81.538,80 83.432,80L116.568,80C118.462,80 120,81.602 120,83.574Z" style="fill:rgb(239,111,108);"/>
    </g>
    <g transform="matrix(1.58506,0.738134,-0.788038,1.48468,229.536,-24.1175)">
        <path d="M60,82.979L60,107.021C60,108.665 58.719,110 57.14,110L32.86,110C31.281,110 30,108.665 30,107.021L30,82.979C30,81.335 31.281,80 32.86,80L57.14,80C58.719,80 60,81.335 60,82.979Z" style="fill:rgb(86,227,159);"/>
    </g>
    <g transform="matrix(1.58506,0.738134,-0.788038,1.48468,229.536,-24.1175)">
        <path d="M170,82.979L170,107.021C170,108.665 168.719,110 167.14,110L142.86,110C141.281,110 140,108.665 140,107.021L140,82.979C140,81.335 141.281,80 142.86,80L167.14,80C168.719,80 170,81.335 170,82.979Z" style="fill:rgb(96,165,250);"/>
    </g>
    <g transform="matrix(1.58506,0.738134,-0.788038,1.48468,229.536,-24.1175)">
        <path d="M110,32.979L110,57.021C110,58.665 108.719,60 107.14,60L82.86,60C81.281,60 80,58.665 80,57.021L80,32.979C80,31.335 81.281,30 82.86,30L107.14,30C108.719,30 110,31.335 110,32.979Z" style="fill:rgb(114,0,38);"/>
    </g>
    <g transform="matrix(1.58506,0.738134,-0.788038,1.48468,229.536,-24.1175)">
        <path d="M60,95L80,95" style="fill:none;fill-rule:nonzero;stroke:rgb(70,87,117);stroke-width:4px;"/>
    </g>
    <g transform="matrix(1.58506,0.738134,-0.788038,1.48468,229.536,-24.1175)">
        <path d="M120,95L140,95" style="fill:none;fill-rule:nonzero;stroke:rgb(70,87,117);stroke-width:4px;"/>
    </g>
    <g transform="matrix(1.58506,0.738134,-0.788038,1.48468,229.536,-24.1175)">
        <path d="M95,60L95,80" style="fill:none;fill-rule:nonzero;stroke:rgb(70,87,117);stroke-width:4px;"/>
    </g>
    <g transform="matrix(1.58506,0.738134,-0.788038,1.48468,229.536,-24.1175)">
        <path d="M95,120L95,140" style="fill:none;fill-rule:nonzero;stroke:rgb(70,87,117);stroke-width:4px;"/>
    </g>
    <g transform="matrix(1.58506,0.738134,-0.788038,1.48468,230.536,-25.1175)">
        <path d="M110,142.979L110,167.021C110,168.665 108.719,170 107.14,170L82.86,170C81.281,170 80,168.665 80,167.021L80,142.979C80,141.335 81.281,140 82.86,140L107.14,140C108.719,140 110,141.335 110,142.979Z" style="fill:rgb(91,108,93);"/>
    </g>
</svg>
